<svg width="800" height="800" viewBox="0 0 800 800" fill="none" xmlns="http://www.w3.org/2000/svg">
  <rect width="800" height="800" rx="72" fill="#F4F1E8"/>
  <rect x="44" y="44" width="712" height="712" rx="52" fill="url(#bg)"/>
  <circle cx="400" cy="334" r="184" fill="url(#halo)" opacity="0.84"/>
  <path d="M404 552V308" stroke="#5C7448" stroke-width="18" stroke-linecap="round"/>
  <path d="M400 230C470 230 526 286 526 356C526 426 470 482 400 482C330 482 274 426 274 356C274 286 330 230 400 230Z" fill="#9AB064"/>
  <path d="M360 248C286 320 286 410 360 464" stroke="#6B844F" stroke-width="22" stroke-linecap="round"/>
  <path d="M442 248C514 320 514 410 442 464" stroke="#6B844F" stroke-width="22" stroke-linecap="round"/>
  <text x="76" y="706" fill="#2C2D22" font-size="44" font-family="Segoe UI, PingFang SC, sans-serif" font-weight="700">仙人掌</text>
  <text x="76" y="750" fill="#72755A" font-size="24" font-family="Segoe UI, PingFang SC, sans-serif">CACTUS</text>
  <defs>
    <linearGradient id="bg" x1="88" y1="80" x2="708" y2="720" gradientUnits="userSpaceOnUse">
      <stop stop-color="#F8F5EE"/>
      <stop offset="1" stop-color="#E5E1C7"/>
    </linearGradient>
    <radialGradient id="halo" cx="0" cy="0" r="1" gradientUnits="userSpaceOnUse" gradientTransform="translate(400 334) rotate(90) scale(232)">
      <stop stop-color="#E5E0BC"/>
      <stop offset="1" stop-color="#E5E0BC" stop-opacity="0"/>
    </radialGradient>
  </defs>
</svg>
