<svg width="800" height="800" viewBox="0 0 800 800" fill="none" xmlns="http://www.w3.org/2000/svg">
  <rect width="800" height="800" rx="72" fill="#F3F1E8"/>
  <rect x="44" y="44" width="712" height="712" rx="52" fill="url(#bg)"/>
  <circle cx="400" cy="328" r="186" fill="url(#halo)" opacity="0.84"/>
  <path d="M400 548V278" stroke="#4F7A55" stroke-width="16" stroke-linecap="round"/>
  <path d="M402 246C490 246 552 306 552 394C552 482 490 542 402 542C314 542 252 482 252 394C252 306 314 246 402 246Z" fill="#D6E2C3"/>
  <path d="M402 280C468 280 514 326 514 392C514 458 468 504 402 504C336 504 290 458 290 392C290 326 336 280 402 280Z" fill="#F8FBF4"/>
  <path d="M334 370L396 432L472 328" stroke="#5B8A63" stroke-width="18" stroke-linecap="round" stroke-linejoin="round"/>
  <text x="76" y="706" fill="#253126" font-size="44" font-family="Segoe UI, PingFang SC, sans-serif" font-weight="700">植物图鉴</text>
  <text x="76" y="750" fill="#6B786A" font-size="24" font-family="Segoe UI, PingFang SC, sans-serif">BOTANICAL ATLAS</text>
  <defs>
    <linearGradient id="bg" x1="88" y1="80" x2="708" y2="720" gradientUnits="userSpaceOnUse">
      <stop stop-color="#F8F6EF"/>
      <stop offset="1" stop-color="#E3EAD8"/>
    </linearGradient>
    <radialGradient id="halo" cx="0" cy="0" r="1" gradientUnits="userSpaceOnUse" gradientTransform="translate(400 328) rotate(90) scale(234)">
      <stop stop-color="#E1E8D5"/>
      <stop offset="1" stop-color="#E1E8D5" stop-opacity="0"/>
    </radialGradient>
  </defs>
</svg>
