<svg width="800" height="800" viewBox="0 0 800 800" fill="none" xmlns="http://www.w3.org/2000/svg">
  <rect width="800" height="800" rx="72" fill="#F4F0E8"/>
  <rect x="44" y="44" width="712" height="712" rx="52" fill="url(#bg)"/>
  <circle cx="400" cy="330" r="186" fill="url(#halo)" opacity="0.84"/>
  <path d="M400 548V282" stroke="#6A7E59" stroke-width="18" stroke-linecap="round"/>
  <path d="M400 248C520 248 604 172 640 74C514 74 434 144 400 248Z" fill="#E3D26A"/>
  <path d="M392 282C284 282 208 216 170 120C286 116 358 178 392 282Z" fill="#D7C054"/>
  <path d="M404 366C520 366 594 306 624 220C508 214 438 272 404 366Z" fill="#A9C56F"/>
  <path d="M394 404C296 404 226 346 194 256C298 252 362 310 394 404Z" fill="#89A55A"/>
  <text x="76" y="706" fill="#2F2D22" font-size="44" font-family="Segoe UI, PingFang SC, sans-serif" font-weight="700">银杏</text>
  <text x="76" y="750" fill="#7D7852" font-size="24" font-family="Segoe UI, PingFang SC, sans-serif">GINKGO</text>
  <defs>
    <linearGradient id="bg" x1="88" y1="80" x2="708" y2="720" gradientUnits="userSpaceOnUse">
      <stop stop-color="#FBF7F0"/>
      <stop offset="1" stop-color="#EEE4BE"/>
    </linearGradient>
    <radialGradient id="halo" cx="0" cy="0" r="1" gradientUnits="userSpaceOnUse" gradientTransform="translate(400 330) rotate(90) scale(234)">
      <stop stop-color="#EFE3B0"/>
      <stop offset="1" stop-color="#EFE3B0" stop-opacity="0"/>
    </radialGradient>
  </defs>
</svg>
