<svg width="800" height="800" viewBox="0 0 800 800" fill="none" xmlns="http://www.w3.org/2000/svg">
  <rect width="800" height="800" rx="72" fill="#F1F3EA"/>
  <rect x="44" y="44" width="712" height="712" rx="52" fill="url(#bg)"/>
  <circle cx="400" cy="326" r="184" fill="url(#halo)" opacity="0.84"/>
  <path d="M396 548V276" stroke="#577358" stroke-width="16" stroke-linecap="round"/>
  <path d="M398 246C486 246 548 304 548 392C548 480 486 538 398 538C310 538 248 480 248 392C248 304 310 246 398 246Z" fill="#91AF8F"/>
  <path d="M398 278C468 278 516 326 516 396C516 466 468 514 398 514C328 514 280 466 280 396C280 326 328 278 398 278Z" fill="#DCE8D1"/>
  <path d="M330 334C360 298 430 298 462 336" stroke="#648264" stroke-width="12" stroke-linecap="round"/>
  <path d="M324 408C356 444 434 444 468 406" stroke="#648264" stroke-width="12" stroke-linecap="round"/>
  <text x="76" y="706" fill="#243126" font-size="44" font-family="Segoe UI, PingFang SC, sans-serif" font-weight="700">荷花</text>
  <text x="76" y="750" fill="#687867" font-size="24" font-family="Segoe UI, PingFang SC, sans-serif">LOTUS POND</text>
  <defs>
    <linearGradient id="bg" x1="88" y1="80" x2="708" y2="720" gradientUnits="userSpaceOnUse">
      <stop stop-color="#F7F8F3"/>
      <stop offset="1" stop-color="#E1EAD7"/>
    </linearGradient>
    <radialGradient id="halo" cx="0" cy="0" r="1" gradientUnits="userSpaceOnUse" gradientTransform="translate(400 326) rotate(90) scale(232)">
      <stop stop-color="#DCE7D0"/>
      <stop offset="1" stop-color="#DCE7D0" stop-opacity="0"/>
    </radialGradient>
  </defs>
</svg>
