<svg width="800" height="800" viewBox="0 0 800 800" fill="none" xmlns="http://www.w3.org/2000/svg">
  <rect width="800" height="800" rx="72" fill="#F6F1E9"/>
  <rect x="44" y="44" width="712" height="712" rx="52" fill="url(#bg)"/>
  <circle cx="408" cy="328" r="184" fill="url(#halo)" opacity="0.84"/>
  <path d="M404 548V264" stroke="#8F5B4E" stroke-width="18" stroke-linecap="round"/>
  <path d="M404 264C530 264 614 198 648 92C514 92 432 156 404 264Z" fill="#C96578"/>
  <path d="M396 302C278 302 196 238 162 138C292 134 370 192 396 302Z" fill="#DA8794"/>
  <path d="M404 384C526 384 600 318 624 224C508 224 436 282 404 384Z" fill="#E6A3AF"/>
  <path d="M396 422C292 422 220 364 192 274C296 270 362 322 396 422Z" fill="#F1B8C2"/>
  <text x="76" y="706" fill="#352826" font-size="44" font-family="Segoe UI, PingFang SC, sans-serif" font-weight="700">樱花</text>
  <text x="76" y="750" fill="#8A6A65" font-size="24" font-family="Segoe UI, PingFang SC, sans-serif">SPRING BLOSSOM</text>
  <defs>
    <linearGradient id="bg" x1="88" y1="80" x2="708" y2="720" gradientUnits="userSpaceOnUse">
      <stop stop-color="#FBF7F3"/>
      <stop offset="1" stop-color="#F1E3DE"/>
    </linearGradient>
    <radialGradient id="halo" cx="0" cy="0" r="1" gradientUnits="userSpaceOnUse" gradientTransform="translate(408 328) rotate(90) scale(236)">
      <stop stop-color="#F1D7DB"/>
      <stop offset="1" stop-color="#F1D7DB" stop-opacity="0"/>
    </radialGradient>
  </defs>
</svg>
